<svg width="90" height="90" viewBox="0 0 90 90" fill="none" xmlns="http://www.w3.org/2000/svg">
<g id="Group 584">
<circle id="Ellipse 40" cx="45" cy="45" r="43.5" stroke="#206178" stroke-width="3"/>
<g id="Group 573">
<path id="Vector" d="M41.8429 39C46.4937 39 50.264 35.4183 50.264 31C50.264 26.5817 46.4937 23 41.8429 23C37.1921 23 33.4219 26.5817 33.4219 31C33.4219 35.4183 37.1921 39 41.8429 39Z" stroke="#206178" stroke-width="4"/>
<path id="Vector_2" d="M64.9992 39H60.7887H56.5781" stroke="#206178" stroke-width="4" stroke-linecap="round"/>
<path id="Vector_3" d="M58.6789 55C58.6842 54.6716 58.6842 54.338 58.6842 54C58.6842 49.0294 51.1438 45 41.8421 45C32.5405 45 25 49.0294 25 54C25 58.9706 25 63 41.8421 63C46.5389 63 49.9259 62.6866 52.3684 62.1268" stroke="#206178" stroke-width="4" stroke-linecap="round"/>
</g>
</g>
</svg>
