<svg width="90" height="90" viewBox="0 0 90 90" fill="none" xmlns="http://www.w3.org/2000/svg">
<g id="Group 583">
<circle id="Ellipse 39" cx="45" cy="45" r="43.5" stroke="#206178" stroke-width="3"/>
<g id="Group">
<path id="Vector" d="M62.6085 34.4025C58.8159 30.61 54.0177 28.1896 48.8153 27.3876C49.3477 26.6256 49.6612 25.6999 49.6612 24.7018C49.6612 22.1092 47.5519 20 44.9594 20C42.3671 20 40.2577 22.1092 40.2577 24.7018C40.2577 25.6999 40.5713 26.6256 41.1036 27.3876C35.9013 28.1897 31.1029 30.61 27.3104 34.4025C22.5962 39.1167 20 45.3846 20 52.0515V59H69.9189V52.0515C69.9189 45.3846 67.3227 39.1167 62.6085 34.4025ZM44.9594 23.2557C45.7569 23.2557 46.4055 23.9046 46.4055 24.702C46.4055 25.4995 45.7567 26.1481 44.9594 26.1481C44.1621 26.1481 43.5133 25.4994 43.5133 24.702C43.5133 23.9047 44.162 23.2557 44.9594 23.2557ZM44.9594 30.3477C55.966 30.3477 65.0844 38.5835 66.4781 49.216H23.4408C24.8344 38.5835 33.9529 30.3477 44.9594 30.3477ZM66.6633 55.7445H23.2555V52.4715H66.6632V55.7445H66.6633Z" fill="#206178"/>
</g>
</g>
</svg>
