<svg width="90" height="90" viewBox="0 0 90 90" fill="none" xmlns="http://www.w3.org/2000/svg">
<g id="Group 581">
<circle id="Ellipse 37" cx="45" cy="45" r="43.5" stroke="#206178" stroke-width="3"/>
<g id="Route">
<path id="Vector" d="M36.4286 30.7143C36.4286 33.8702 33.8702 36.4286 30.7143 36.4286C27.5584 36.4286 25 33.8702 25 30.7143C25 27.5584 27.5584 25 30.7143 25C33.8702 25 36.4286 27.5584 36.4286 30.7143Z" fill="#206178"/>
<path id="Vector_2" d="M65.0008 59.2861C65.0008 62.4421 62.4426 65.0003 59.2866 65.0003C56.1306 65.0003 53.5723 62.4421 53.5723 59.2861C53.5723 56.1301 56.1306 53.5718 59.2866 53.5718C62.4426 53.5718 65.0008 56.1301 65.0008 59.2861Z" fill="#206178"/>
<path id="Vector_3" d="M47.8574 35C47.8574 32.6331 49.7762 30.7143 52.1431 30.7143C54.51 30.7143 56.4289 32.6331 56.4289 35V47.8571H62.1431V35C62.1431 29.4771 57.666 25 52.1431 25C46.6203 25 42.1431 29.4771 42.1431 35V55C42.1431 57.3669 40.2244 59.2857 37.8574 59.2857C35.4905 59.2857 33.5717 57.3669 33.5717 55V42.1429H27.8574V55C27.8574 60.5229 32.3346 65 37.8574 65C43.3803 65 47.8574 60.5229 47.8574 55V35Z" fill="#206178"/>
</g>
</g>
</svg>
