<svg width="90" height="90" viewBox="0 0 90 90" fill="none" xmlns="http://www.w3.org/2000/svg">
<circle cx="45" cy="45" r="43.5" stroke="#206178" stroke-width="3"/>
<path d="M46.2727 55.2273V52.7727C46.2727 51.7937 45.479 51 44.5 51C43.5209 51 42.7273 51.7937 42.7273 52.7727V55.2273C42.7273 56.2063 43.5209 57 44.5 57C45.479 57 46.2727 56.2063 46.2727 55.2273Z" fill="#206178"/>
<path d="M55.1363 55.2273V49.7727C55.1363 48.7937 54.3427 48 53.3636 48C52.3846 48 51.5909 48.7937 51.5909 49.7727V55.2273C51.5909 56.2063 52.3846 57 53.3636 57C54.3427 57 55.1363 56.2063 55.1363 55.2273Z" fill="#206178"/>
<path d="M37.409 55.2274V43.7728C37.409 42.7938 36.6154 42.0001 35.6363 42.0001C34.6573 42.0001 33.8636 42.7938 33.8636 43.7729V55.2274C33.8636 56.2064 34.6573 57.0001 35.6363 57.0001C36.6154 57.0001 37.409 56.2064 37.409 55.2274Z" fill="#206178"/>
<path d="M60.4545 28.5H55.1364V27C55.1364 26.2044 54.7628 25.4413 54.0979 24.8787C53.433 24.3161 52.5312 24 51.5909 24H37.4091C36.4688 24 35.567 24.3161 34.9021 24.8787C34.2372 25.4413 33.8636 26.2044 33.8636 27V28.5H28.5455C27.6051 28.5 26.7033 28.8161 26.0384 29.3787C25.3735 29.9413 25 30.7044 25 31.5V63C25 63.7956 25.3735 64.5587 26.0384 65.1213C26.7033 65.6839 27.6051 66 28.5455 66H60.4545C61.3949 66 62.2967 65.6839 62.9616 65.1213C63.6265 64.5587 64 63.7956 64 63V31.5C64 30.7044 63.6265 29.9413 62.9616 29.3787C62.2967 28.8161 61.3949 28.5 60.4545 28.5ZM37.4091 27H51.5909V33H37.4091V27ZM60.4545 63H28.5455V31.5H33.8636V36H55.1364V31.5H60.4545V63Z" fill="#206178"/>
</svg>
