<svg width="26" height="23" viewBox="0 0 26 23" fill="none" xmlns="http://www.w3.org/2000/svg">
<path fill-rule="evenodd" clip-rule="evenodd" d="M6.95349 0C5.0005 0 3.23446 0.488111 1.95261 1.67839C0.65861 2.87998 0 4.66434 0 6.95349V15.4186C0 17.7078 0.65861 19.4921 1.95261 20.6937C3.23446 21.884 5.0005 22.3721 6.95349 22.3721H19.0465C20.9995 22.3721 22.7656 21.884 24.0473 20.6937C25.3414 19.4921 26 17.7078 26 15.4186V6.95349C26 4.66434 25.3414 2.87998 24.0473 1.67839C22.7656 0.488111 20.9995 0 19.0465 0H6.95349ZM21.7414 6.78697C22.1377 6.4807 22.2108 5.91109 21.9045 5.51473C21.5983 5.11836 21.0287 5.04533 20.6323 5.35161L13.9241 10.535C13.3798 10.9557 12.62 10.9557 12.0756 10.535L5.36761 5.35161C4.97124 5.04533 4.40164 5.11836 4.09536 5.51473C3.78908 5.91109 3.86211 6.4807 4.25849 6.78697L10.9666 11.9704C12.1643 12.8958 13.8356 12.8958 15.0333 11.9704L21.7414 6.78697Z" fill="white"/>
</svg>
