<svg width="138" height="39" viewBox="0 0 138 39" fill="none" xmlns="http://www.w3.org/2000/svg">
<path d="M29.6681 1.3015V37.0286C29.6681 37.7875 27.9746 38.1649 24.579 38.1649C21.1877 38.1649 19.347 37.896 19.0569 37.3539C19.0569 37.3539 15.3842 30.4799 12.7205 25.4969C12.4087 24.9157 11.7416 24.6165 11.1049 24.7769C10.4639 24.9374 10.0178 25.5142 10.0178 26.1734V37.2975C10.0178 37.948 8.34608 38.2733 5.00679 38.2733C1.67183 38.2733 0 37.948 0 37.2975V1.03263C0 0.490523 1.42496 0.217285 4.27917 0.217285C5.39659 0.217285 6.70461 0.317034 8.20318 0.51653C9.70174 0.716026 10.6112 1.08465 10.936 1.62675C10.936 1.62675 14.3489 8.20146 16.8869 13.0978C17.1945 13.6876 17.8615 13.9912 18.5025 13.835C19.1479 13.6746 19.5983 13.0978 19.5983 12.4385V1.3015C19.5983 0.616277 21.2787 0.273667 24.6353 0.273667C27.9919 0.273667 29.6681 0.616277 29.6681 1.3015Z" fill="white"/>
<path d="M88.6471 0.706885C88.5389 0.307893 90.3622 0.108395 94.113 0.108395C98.2665 0.108395 100.393 0.45097 100.501 1.14053C100.501 1.14053 101.61 10.6557 102.394 17.3995C102.459 17.9763 102.927 18.423 103.507 18.4577C104.088 18.4967 104.607 18.1151 104.75 17.5513C106.448 10.7164 108.895 0.86736 108.895 0.86736C109.073 0.325252 110.48 0.0563152 113.118 0.0563152C115.751 0.0563152 117.159 0.307867 117.341 0.81528C117.341 0.81528 119.805 11.0026 121.473 17.8896C121.611 18.4534 122.127 18.835 122.703 18.809C123.279 18.7786 123.751 18.3406 123.829 17.7681C124.76 10.9463 126.111 1.03214 126.111 1.03214C126.181 0.633145 127.012 0.364244 128.602 0.21679C130.187 0.0736738 131.469 0 132.443 0C136.233 0 138.074 0.255822 137.965 0.758899L131.417 36.7029C131.27 37.245 130.243 37.6396 128.329 37.8955C126.419 38.1471 124.864 38.2728 123.673 38.2728C119.199 38.2728 116.851 37.7697 116.635 36.7549C116.635 36.7549 115.153 30.744 114.066 26.3594C113.936 25.826 113.464 25.4487 112.914 25.4444C112.369 25.44 111.888 25.8043 111.745 26.3334C110.567 30.705 108.947 36.7029 108.947 36.7029C108.804 37.3534 107.539 37.8218 105.157 38.1124C103.932 38.2208 102.706 38.2728 101.476 38.2728L98.0109 38.1124C95.6288 37.8565 94.3685 37.4054 94.2212 36.7549L88.6471 0.706885Z" fill="white"/>
<path d="M52.2254 38.2719C62.7204 38.2719 71.2282 29.7528 71.2282 19.2439C71.2282 8.73497 62.7204 0.21582 52.2254 0.21582C41.7305 0.21582 33.2227 8.73497 33.2227 19.2439C33.2227 29.7528 41.7305 38.2719 52.2254 38.2719Z" fill="#F26A1B"/>
<path fill-rule="evenodd" clip-rule="evenodd" d="M65.0839 1.35585C64.8512 1.2737 64.7058 1.04126 64.7343 0.795607C64.7626 0.549958 64.957 0.35687 65.2023 0.330192C65.8826 0.253856 66.5737 0.21582 67.2738 0.21582C77.7618 0.21582 86.2766 8.74196 86.2766 19.2439C86.2766 29.7455 77.7618 38.2716 67.2738 38.2716C66.5737 38.2716 65.8826 38.2336 65.202 38.1596C64.9557 38.133 64.7605 37.9388 64.732 37.6921C64.7035 37.4457 64.8494 37.2119 65.0831 37.1295C72.3808 34.4741 77.598 27.4641 77.598 19.2439C77.598 11.0233 72.3808 4.01335 65.0839 1.35585Z" fill="#034C8C"/>
</svg>
