<?xml version="1.0" encoding="UTF-8" standalone="no"?>
<!DOCTYPE svg PUBLIC "-//W3C//DTD SVG 1.1//EN" "http://www.w3.org/Graphics/SVG/1.1/DTD/svg11.dtd">
<svg width="100%" height="100%" viewBox="0 0 985 276" version="1.1" xmlns="http://www.w3.org/2000/svg" xmlns:xlink="http://www.w3.org/1999/xlink" xml:space="preserve" xmlns:serif="http://www.serif.com/" style="fill-rule:evenodd;clip-rule:evenodd;stroke-linejoin:round;stroke-miterlimit:2;">
    <g id="Artboard1" transform="matrix(0.98474,0,0,0.275583,0,0)">
        <rect x="0" y="0" width="1000" height="1000" style="fill:none;"/>
        <g transform="matrix(31.1673,0,0,111.37,-10663.8,-24395.6)">
            <path d="M349.126,219.442C349.126,219.442 349.126,227.68 349.126,227.68C349.126,227.855 348.735,227.942 347.951,227.942C347.168,227.942 346.743,227.88 346.676,227.755C346.676,227.755 345.828,226.17 345.213,225.021C345.141,224.887 344.987,224.818 344.84,224.855C344.692,224.892 344.589,225.025 344.589,225.177L344.589,227.742C344.589,227.892 344.203,227.967 343.432,227.967C342.662,227.967 342.276,227.892 342.276,227.742L342.276,219.38C342.276,219.255 342.605,219.192 343.264,219.192C343.522,219.192 343.824,219.215 344.17,219.261C344.516,219.307 344.726,219.392 344.801,219.517C344.801,219.517 345.589,221.033 346.175,222.162C346.246,222.298 346.4,222.368 346.548,222.332C346.697,222.295 346.801,222.162 346.801,222.01L346.801,219.442C346.801,219.284 347.189,219.205 347.964,219.205C348.739,219.205 349.126,219.284 349.126,219.442Z" style="fill-rule:nonzero;"/>
        </g>
        <g transform="matrix(31.1673,0,0,111.37,-10014.6,-24398.4)">
            <path d="M341.914,219.33C341.889,219.238 342.31,219.192 343.176,219.192C344.135,219.192 344.626,219.271 344.651,219.43C344.651,219.43 344.907,221.624 345.088,223.179C345.103,223.312 345.211,223.415 345.345,223.423C345.479,223.432 345.599,223.344 345.632,223.214C346.024,221.638 346.589,219.367 346.589,219.367C346.63,219.242 346.955,219.18 347.564,219.18C348.172,219.18 348.497,219.238 348.539,219.355C348.539,219.355 349.108,221.704 349.493,223.292C349.525,223.422 349.644,223.51 349.777,223.504C349.91,223.497 350.019,223.396 350.037,223.264C350.252,221.691 350.564,219.405 350.564,219.405C350.58,219.313 350.772,219.251 351.139,219.217C351.505,219.184 351.801,219.167 352.026,219.167C352.901,219.167 353.326,219.226 353.301,219.342L351.789,227.63C351.755,227.755 351.518,227.846 351.076,227.905C350.635,227.963 350.276,227.992 350.001,227.992C348.968,227.992 348.426,227.876 348.376,227.642C348.376,227.642 348.034,226.256 347.783,225.245C347.753,225.122 347.644,225.035 347.517,225.034C347.391,225.033 347.28,225.117 347.247,225.239C346.975,226.247 346.601,227.63 346.601,227.63C346.568,227.78 346.276,227.888 345.726,227.955C345.443,227.98 345.16,227.992 344.876,227.992L344.076,227.955C343.526,227.896 343.235,227.792 343.201,227.642L341.914,219.33Z" style="fill-rule:nonzero;"/>
        </g>
        <g transform="matrix(1.89826,0,0,6.78304,-461.002,-1142.67)">
            <g transform="matrix(1,0,0,1,-34.4703,0)">
                <circle cx="477.423" cy="242.824" r="72.038" style="fill:rgb(242,106,27);"/>
            </g>
            <g transform="matrix(1,0,0,1,22.5768,0)">
                <path d="M469.121,175.102C468.239,174.791 467.688,173.911 467.796,172.981C467.903,172.051 468.64,171.32 469.57,171.219C472.149,170.93 474.769,170.786 477.423,170.786C517.182,170.786 549.461,203.065 549.461,242.824C549.461,282.582 517.182,314.861 477.423,314.861C474.769,314.861 472.149,314.717 469.569,314.437C468.635,314.336 467.895,313.601 467.787,312.667C467.679,311.734 468.232,310.849 469.118,310.537C496.783,300.484 516.561,273.945 516.561,242.824C516.561,211.702 496.783,185.163 469.121,175.102Z" style="fill:rgb(3,76,140);"/>
            </g>
        </g>
    </g>
</svg>
