<svg width="1446" height="1098" viewBox="0 0 1446 1098" fill="none" xmlns="http://www.w3.org/2000/svg">
<path d="M961.954 1021.87C701.206 1021.87 489.829 810.487 489.829 549.739C489.829 288.99 701.206 77.6121 961.954 77.6121C1222.7 77.6121 1434.08 288.99 1434.08 549.739C1434.08 810.487 1222.7 1021.87 961.954 1021.87Z" fill="white"/>
<mask id="mask0_257_169" style="mask-type:luminance" maskUnits="userSpaceOnUse" x="0" y="0" width="672" height="1098">
<path d="M0.000305176 0L671.529 0V1097.16H0.000305176V0Z" fill="white"/>
</mask>
<g mask="url(#mask0_257_169)">
<path fill-rule="evenodd" clip-rule="evenodd" d="M664.525 18.3568C666.246 17.9075 667.434 16.3388 667.388 14.5568C667.342 12.7825 666.086 11.267 664.342 10.9015C629.038 3.75082 592.5 0.00415039 555.102 0.00415039C252.33 0.00415039 6.52025 245.815 6.52025 548.587C6.52025 851.351 252.33 1097.16 555.102 1097.16C592.5 1097.16 629.038 1093.41 664.342 1086.26C666.086 1085.91 667.35 1084.39 667.388 1082.61C667.434 1080.83 666.246 1079.26 664.525 1078.81C430.046 1016.48 257.06 802.576 257.06 548.587C257.06 294.598 430.046 80.687 664.525 18.3568Z" fill="white"/>
</g>
</svg>
