<svg width="419" height="318" viewBox="0 0 419 318" fill="none" xmlns="http://www.w3.org/2000/svg">
<path d="M140.001 295.554C215.417 295.554 276.553 234.417 276.553 159.001C276.553 83.5846 215.417 22.4478 140.001 22.4478C64.5846 22.4478 3.44781 83.5846 3.44781 159.001C3.44781 234.417 64.5846 295.554 140.001 295.554Z" fill="white"/>
<mask id="mask0_269_248" style="mask-type:luminance" maskUnits="userSpaceOnUse" x="224" y="0" width="195" height="318">
<path d="M418.226 0L224 0V317.332H418.226V0Z" fill="white"/>
</mask>
<g mask="url(#mask0_269_248)">
<path fill-rule="evenodd" clip-rule="evenodd" d="M226.026 5.30934C225.528 5.17939 225.185 4.72569 225.198 4.21029C225.211 3.6971 225.575 3.25877 226.079 3.15305C236.29 1.08487 246.858 0.0012207 257.674 0.0012207C345.245 0.0012207 416.341 71.0969 416.341 158.668C416.341 246.236 345.245 317.332 257.674 317.332C246.858 317.332 236.29 316.248 226.079 314.18C225.575 314.076 225.209 313.638 225.198 313.123C225.185 312.607 225.528 312.154 226.026 312.024C293.844 293.996 343.877 232.129 343.877 158.668C343.877 85.2064 293.844 23.3371 226.026 5.30934Z" fill="white"/>
</g>
</svg>
