<svg width="168" height="127" viewBox="0 0 168 127" fill="none" xmlns="http://www.w3.org/2000/svg">
<path d="M60.1738 127C93.4069 127 120.348 98.5701 120.348 63.5C120.348 28.4299 93.4069 0 60.1738 0C26.9407 0 0 28.4299 0 63.5C0 98.5701 26.9407 127 60.1738 127Z" fill="#F26A1B"/>
<path fill-rule="evenodd" clip-rule="evenodd" d="M100.891 3.80447C100.155 3.53033 99.6944 2.75463 99.7846 1.93485C99.874 1.11508 100.49 0.470709 101.266 0.381679C103.421 0.126932 105.609 0 107.826 0C141.037 0 168 28.4533 168 63.5C168 98.5458 141.037 126.999 107.826 126.999C105.609 126.999 103.421 126.872 101.266 126.625C100.485 126.536 99.8673 125.888 99.7771 125.065C99.6869 124.243 100.149 123.463 100.889 123.188C123.998 114.326 140.518 90.9325 140.518 63.5C140.518 36.0666 123.998 12.673 100.891 3.80447Z" fill="#034C8C"/>
</svg>
