<svg width="90" height="90" viewBox="0 0 90 90" fill="none" xmlns="http://www.w3.org/2000/svg">
<g id="Group 582">
<circle id="Ellipse 38" cx="45" cy="45" r="43.5" stroke="#206178" stroke-width="3"/>
<g id="Vector">
<g id="Group">
<path id="Vector_2" d="M40 48.5004C40 50.4404 41.5 52.0004 43.34 52.0004H47.1C48.7 52.0004 50 50.6404 50 48.9404C50 47.1204 49.2 46.4604 48.02 46.0404L42 43.9404C40.82 43.5204 40.02 42.8804 40.02 41.0404C40.02 39.3605 41.32 37.9805 42.92 37.9805H46.68C48.52 37.9805 50.02 39.5405 50.02 41.4804" stroke="#206178" stroke-width="4" stroke-linecap="round" stroke-linejoin="round"/>
<path id="Vector_3" d="M45 36V54" stroke="#206178" stroke-width="4" stroke-linecap="round" stroke-linejoin="round"/>
</g>
<path id="Vector_4" d="M65 45C65 56.04 56.04 65 45 65C33.96 65 25 56.04 25 45C25 33.96 33.96 25 45 25" stroke="#206178" stroke-width="4" stroke-linecap="round" stroke-linejoin="round"/>
<path id="Vector_5" d="M65 33V25H57" stroke="#206178" stroke-width="4" stroke-linecap="round" stroke-linejoin="round"/>
<path id="Vector_6" d="M55 35L65 25" stroke="#206178" stroke-width="4" stroke-linecap="round" stroke-linejoin="round"/>
</g>
</g>
</svg>
