<svg width="90" height="90" viewBox="0 0 90 90" fill="none" xmlns="http://www.w3.org/2000/svg">
<circle cx="45" cy="45" r="43.5" stroke="#206178" stroke-width="3"/>
<path d="M46.819 50.7144H43.1826V56.4286H46.819V50.7144Z" fill="#206178"/>
<path d="M55.9088 47.8569H52.2725V56.4284H55.9088V47.8569Z" fill="#206178"/>
<path d="M37.7272 42.1431H34.0908V56.4288H37.7272V42.1431Z" fill="#206178"/>
<path d="M61.3636 29.2857H55.9091V27.8571C55.9091 27.0994 55.526 26.3727 54.844 25.8368C54.1621 25.301 53.2372 25 52.2727 25H37.7273C36.7628 25 35.8379 25.301 35.156 25.8368C34.474 26.3727 34.0909 27.0994 34.0909 27.8571V29.2857H28.6364C27.6719 29.2857 26.747 29.5867 26.0651 30.1226C25.3831 30.6584 25 31.3851 25 32.1429V62.1429C25 62.9006 25.3831 63.6273 26.0651 64.1632C26.747 64.699 27.6719 65 28.6364 65H61.3636C62.3281 65 63.253 64.699 63.9349 64.1632C64.6169 63.6273 65 62.9006 65 62.1429V32.1429C65 31.3851 64.6169 30.6584 63.9349 30.1226C63.253 29.5867 62.3281 29.2857 61.3636 29.2857ZM37.7273 27.8571H52.2727V33.5714H37.7273V27.8571ZM61.3636 62.1429H28.6364V32.1429H34.0909V36.4286H55.9091V32.1429H61.3636V62.1429Z" fill="#206178"/>
</svg>
