<svg width="90" height="90" viewBox="0 0 90 90" fill="none" xmlns="http://www.w3.org/2000/svg">
<g id="Group 580">
<circle id="Ellipse 36" cx="45" cy="45" r="43.5" stroke="#206178" stroke-width="3"/>
<path id="Vector" d="M67 45.5C67 51.4674 64.6295 57.1903 60.4099 61.4099C56.1903 65.6295 50.4674 68 44.5 68C38.5326 68 32.8097 65.6295 28.5901 61.4099C24.3705 57.1903 22 51.4674 22 45.5C22 45.0027 22.1975 44.5258 22.5492 44.1742C22.9008 43.8225 23.3777 43.625 23.875 43.625C24.3723 43.625 24.8492 43.8225 25.2008 44.1742C25.5525 44.5258 25.75 45.0027 25.75 45.5C25.75 49.2084 26.8497 52.8335 28.9099 55.9169C30.9702 59.0004 33.8986 61.4036 37.3247 62.8227C40.7508 64.2419 44.5208 64.6132 48.1579 63.8897C51.7951 63.1662 55.136 61.3805 57.7582 58.7582C60.3805 56.136 62.1662 52.7951 62.8897 49.1579C63.6132 45.5208 63.2419 41.7508 61.8227 38.3247C60.4036 34.8986 58.0004 31.9702 54.9169 29.9099C51.8335 27.8497 48.2084 26.75 44.5 26.75C44.0027 26.75 43.5258 26.5525 43.1742 26.2008C42.8225 25.8492 42.625 25.3723 42.625 24.875C42.625 24.3777 42.8225 23.9008 43.1742 23.5492C43.5258 23.1975 44.0027 23 44.5 23C50.4654 23.0065 56.1846 25.3791 60.4028 29.5972C64.6209 33.8154 66.9935 39.5346 67 45.5ZM41.2694 43.625H37C36.5027 43.625 36.0258 43.8225 35.6742 44.1742C35.3225 44.5258 35.125 45.0027 35.125 45.5C35.125 45.9973 35.3225 46.4742 35.6742 46.8258C36.0258 47.1775 36.5027 47.375 37 47.375H41.2694C41.5557 47.8723 41.9527 48.297 42.4295 48.6162C42.9064 48.9355 43.4503 49.1407 44.0192 49.2159C44.5881 49.2911 45.1667 49.2344 45.7102 49.0501C46.2536 48.8658 46.7473 48.5589 47.1531 48.1531C47.5589 47.7473 47.8658 47.2536 48.0501 46.7102C48.2344 46.1667 48.2911 45.5881 48.2159 45.0192C48.1407 44.4503 47.9355 43.9064 47.6162 43.4295C47.297 42.9527 46.8723 42.5557 46.375 42.2694V36.125C46.375 35.6277 46.1775 35.1508 45.8258 34.7992C45.4742 34.4475 44.9973 34.25 44.5 34.25C44.0027 34.25 43.5258 34.4475 43.1742 34.7992C42.8225 35.1508 42.625 35.6277 42.625 36.125V42.2694C42.0633 42.5962 41.5962 43.0633 41.2694 43.625ZM25.4256 39.47C25.7965 39.47 26.159 39.36 26.4673 39.154C26.7757 38.948 27.016 38.6551 27.1579 38.3125C27.2998 37.9699 27.3369 37.5929 27.2646 37.2292C27.1922 36.8655 27.0137 36.5314 26.7515 36.2692C26.4892 36.007 26.1551 35.8284 25.7914 35.756C25.4277 35.6837 25.0507 35.7208 24.7081 35.8627C24.3655 36.0046 24.0726 36.245 23.8666 36.5533C23.6606 36.8616 23.5506 37.2242 23.5506 37.595C23.5506 38.0923 23.7482 38.5692 24.0998 38.9208C24.4514 39.2725 24.9283 39.47 25.4256 39.47ZM29.9144 32.7631C30.2852 32.7631 30.6477 32.6532 30.9561 32.4471C31.2644 32.2411 31.5047 31.9483 31.6466 31.6057C31.7886 31.263 31.8257 30.886 31.7533 30.5223C31.681 30.1586 31.5024 29.8245 31.2402 29.5623C30.978 29.3001 30.6439 29.1215 30.2802 29.0492C29.9165 28.9768 29.5395 29.0139 29.1968 29.1559C28.8542 29.2978 28.5614 29.5381 28.3554 29.8464C28.1493 30.1548 28.0394 30.5173 28.0394 30.8881C28.0394 31.3854 28.2369 31.8623 28.5885 32.214C28.9402 32.5656 29.4171 32.7631 29.9144 32.7631ZM36.5856 28.3269C36.9565 28.3269 37.319 28.2169 37.6273 28.0109C37.9357 27.8049 38.176 27.512 38.3179 27.1694C38.4598 26.8268 38.4969 26.4498 38.4246 26.0861C38.3523 25.7224 38.1737 25.3883 37.9114 25.126C37.6492 24.8638 37.3151 24.6852 36.9514 24.6129C36.5877 24.5406 36.2107 24.5777 35.8681 24.7196C35.5255 24.8615 35.2326 25.1018 35.0266 25.4102C34.8206 25.7185 34.7106 26.081 34.7106 26.4519C34.7106 26.9492 34.9082 27.4261 35.2598 27.7777C35.6114 28.1293 36.0883 28.3269 36.5856 28.3269Z" fill="#206178"/>
</g>
</svg>
