<svg width="70" height="70" viewBox="0 0 70 70" fill="none" xmlns="http://www.w3.org/2000/svg">
<path d="M69.9999 33.9489C69.9999 35.0621 69.9455 36.1724 69.8367 37.2769C69.7307 38.3843 69.5675 39.4831 69.3528 40.5732C69.1381 41.6633 68.8689 42.7418 68.5482 43.806C68.2275 44.8701 67.8553 45.9141 67.4344 46.9408C67.0107 47.9703 66.5411 48.9739 66.02 49.9544C65.4989 50.9349 64.932 51.8866 64.3192 52.8123C63.7065 53.7351 63.0479 54.6291 62.3493 55.4885C61.6478 56.3479 60.9062 57.1698 60.1274 57.9571C59.3458 58.7415 58.5298 59.4885 57.6765 60.195C56.8233 60.8987 55.9357 61.562 55.0194 62.1791C54.1003 62.7963 53.1555 63.3673 52.182 63.8921C51.2085 64.417 50.2121 64.89 49.1927 65.3168C48.1706 65.7407 47.1341 66.1156 46.0775 66.4386C45.021 66.7616 43.9502 67.0298 42.8678 67.249C41.7855 67.4653 40.6947 67.6267 39.5952 67.7363C38.4985 67.8459 37.3962 67.9007 36.291 67.9007C35.1886 67.9007 34.0863 67.8459 32.9868 67.7363C31.8902 67.6267 30.7993 67.4653 29.717 67.249C28.6318 67.0298 27.5638 66.7616 26.5073 66.4386C25.4508 66.1156 24.4114 65.7407 23.3921 65.3168C22.3728 64.89 21.3764 64.417 20.4029 63.8921C19.4294 63.3673 18.4817 62.7963 17.5654 62.1791C16.6463 61.562 15.7616 60.8987 14.9083 60.195C14.0551 59.4885 13.2362 58.7415 12.4574 57.9571C11.6757 57.1698 10.937 56.3479 10.2355 55.4885C9.53404 54.6291 8.87836 53.7351 8.26562 52.8123C7.65289 51.8866 7.08597 50.9349 6.56486 49.9544C6.04375 48.9739 5.57132 47.9703 5.15042 46.9408C4.72666 45.9141 4.3573 44.8701 4.03662 43.806C3.71594 42.7418 3.4468 41.6633 3.23205 40.5732C3.01731 39.4831 2.85411 38.3843 2.7453 37.2769C2.63936 36.1724 2.58496 35.0621 2.58496 33.9489C2.58496 32.8386 2.63936 31.7283 2.7453 30.6209C2.85411 29.5164 3.01731 28.4177 3.23205 27.3276C3.4468 26.2346 3.71594 25.1589 4.03662 24.0947C4.3573 23.0306 4.72666 21.9837 5.15042 20.9571C5.57132 19.9304 6.04375 18.9268 6.56486 17.9463C7.08597 16.9658 7.65289 16.0112 8.26562 15.0884C8.87836 14.1627 9.53404 13.2716 10.2355 12.4122C10.937 11.5528 11.6757 10.728 12.4574 9.94358C13.2362 9.15629 14.0551 8.41225 14.9083 7.7057C15.7616 6.99915 16.6463 6.33875 17.5654 5.7216C18.4817 5.10445 19.4294 4.53344 20.4029 4.00858C21.3764 3.48371 22.3728 3.00788 23.3921 2.58395C24.4114 2.15713 25.4508 1.78512 26.5073 1.46212C27.5638 1.13913 28.6318 0.868045 29.717 0.651755C30.7993 0.435465 31.8902 0.271084 32.9868 0.161497C34.0863 0.0547937 35.1886 0 36.291 0C37.3962 0 38.4985 0.0547937 39.5952 0.161497C40.6947 0.271084 41.7855 0.435465 42.8678 0.651755C43.9502 0.868045 45.021 1.13913 46.0775 1.46212C47.1341 1.78512 48.1706 2.15713 49.1927 2.58395C50.2121 3.00788 51.2085 3.48371 52.182 4.00858C53.1555 4.53344 54.1003 5.10445 55.0194 5.7216C55.9357 6.33875 56.8233 6.99915 57.6765 7.7057C58.5298 8.41225 59.3458 9.15629 60.1274 9.94358C60.9062 10.728 61.6478 11.5528 62.3493 12.4122C63.0479 13.2716 63.7065 14.1627 64.3192 15.0884C64.932 16.0112 65.4989 16.9658 66.02 17.9463C66.5411 18.9268 67.0107 19.9304 67.4344 20.9571C67.8553 21.9837 68.2275 23.0306 68.5482 24.0947C68.8689 25.1589 69.1381 26.2346 69.3528 27.3276C69.5675 28.4177 69.7307 29.5164 69.8367 30.6209C69.9455 31.7283 69.9999 32.8386 69.9999 33.9489Z" fill="#045FBA" fill-opacity="0.8"/>
<path d="M67.4149 36.0483C67.4149 37.1615 67.3605 38.2717 67.2517 39.3763C67.1458 40.4837 66.9826 41.5824 66.7678 42.6725C66.5531 43.7626 66.2839 44.8412 65.9633 45.9053C65.6426 46.9695 65.2732 48.0135 64.8495 49.043C64.4257 50.0697 63.9561 51.0732 63.435 52.0538C62.9139 53.0343 62.347 53.986 61.7343 54.9117C61.1215 55.8374 60.463 56.7285 59.7644 57.5879C59.0629 58.4473 58.3241 59.2692 57.5425 60.0565C56.7608 60.8438 55.9448 61.5878 55.0916 62.2944C54.2383 62.998 53.3536 63.6613 52.4345 64.2785C51.5154 64.8956 50.5705 65.4666 49.597 65.9915C48.6235 66.5164 47.6271 66.9893 46.6078 67.4161C45.5856 67.8401 44.5491 68.215 43.4926 68.538C42.436 68.861 41.3652 69.132 40.2829 69.3483C39.2006 69.5646 38.1097 69.729 37.0102 69.8357C35.9136 69.9453 34.8112 70.0001 33.706 70.0001C32.6037 70.0001 31.5013 69.9453 30.4047 69.8357C29.3052 69.729 28.2143 69.5646 27.132 69.3483C26.0497 69.132 24.9789 68.861 23.9223 68.538C22.8658 68.215 21.8265 67.8401 20.8071 67.4161C19.7878 66.9893 18.7914 66.5164 17.8179 65.9915C16.8444 65.4666 15.8996 64.8956 14.9805 64.2785C14.0614 63.6613 13.1766 62.998 12.3234 62.2944C11.4701 61.5878 10.6541 60.8438 9.87244 60.0565C9.09078 59.2692 8.35206 58.4473 7.65057 57.5879C6.94908 56.7285 6.2934 55.8374 5.68066 54.9117C5.06793 53.986 4.50101 53.0343 3.9799 52.0538C3.45879 51.0732 2.98922 50.0697 2.56546 49.043C2.1417 48.0135 1.77234 46.9695 1.45166 45.9053C1.13098 44.8412 0.861835 43.7626 0.647092 42.6725C0.432349 41.5824 0.269144 40.4837 0.163205 39.3763C0.0544019 38.2717 0 37.1615 0 36.0483C0 34.938 0.0544019 33.8277 0.163205 32.7232C0.269144 31.6158 0.432349 30.517 0.647092 29.4269C0.861835 28.3368 1.13098 27.2582 1.45166 26.1941C1.77234 25.1299 2.1417 24.086 2.56546 23.0564C2.98922 22.0298 3.45879 21.0262 3.9799 20.0457C4.50101 19.0652 5.06793 18.1135 5.68066 17.1878C6.2934 16.2621 6.94908 15.3709 7.65057 14.5115C8.35206 13.6521 9.09078 12.8302 9.87244 12.0429C10.6541 11.2557 11.4701 10.5116 12.3234 9.80507C13.1766 9.1014 14.0614 8.43811 14.9805 7.82096C15.8996 7.20381 16.8444 6.63281 17.8179 6.10794C18.7914 5.58308 19.7878 5.11013 20.8071 4.68331C21.8265 4.2565 22.8658 3.88448 23.9223 3.56149C24.9789 3.23849 26.0497 2.96741 27.132 2.75112C28.2143 2.53483 29.3052 2.37045 30.4047 2.26375C31.5013 2.15416 32.6037 2.09937 33.706 2.09937C34.8112 2.09937 35.9136 2.15416 37.0102 2.26375C38.1097 2.37045 39.2006 2.53483 40.2829 2.75112C41.3652 2.96741 42.436 3.23849 43.4926 3.56149C44.5491 3.88448 45.5856 4.2565 46.6078 4.68331C47.6271 5.11013 48.6235 5.58308 49.597 6.10794C50.5705 6.63281 51.5154 7.20381 52.4345 7.82096C53.3536 8.43811 54.2383 9.1014 55.0916 9.80507C55.9448 10.5116 56.7608 11.2557 57.5425 12.0429C58.3241 12.8302 59.0629 13.6521 59.7644 14.5115C60.463 15.3709 61.1215 16.2621 61.7343 17.1878C62.347 18.1135 62.9139 19.0652 63.435 20.0457C63.9561 21.0262 64.4257 22.0298 64.8495 23.0564C65.2732 24.086 65.6426 25.1299 65.9633 26.1941C66.2839 27.2582 66.5531 28.3368 66.7678 29.4269C66.9826 30.517 67.1458 31.6158 67.2517 32.7232C67.3605 33.8277 67.4149 34.938 67.4149 36.0483Z" fill="#0339A6" fill-opacity="0.8"/>
<path fill-rule="evenodd" clip-rule="evenodd" d="M30.5282 17.0525L38.1303 45.6266C38.3938 46.6129 37.8125 47.6251 36.8361 47.8876L33.2942 48.8422C32.3178 49.1075 31.3128 48.522 31.0522 47.5386L23.4502 18.9616C23.1867 17.9782 23.768 16.966 24.7444 16.7035L28.2834 15.7461C29.2627 15.4836 30.2677 16.0691 30.5282 17.0525Z" fill="#2484BF" fill-opacity="0.8"/>
<path fill-rule="evenodd" clip-rule="evenodd" d="M51.7249 45.585H23.9336C22.9228 45.585 22.1011 44.7573 22.1011 43.7393V40.0479C22.1011 39.0298 22.9228 38.2021 23.9336 38.2021H51.7249C52.7385 38.2021 53.5574 39.0298 53.5574 40.0479V43.7393C53.5574 44.7573 52.7385 45.585 51.7249 45.585Z" fill="#0468BF" fill-opacity="0.8"/>
</svg>
